{"title":"Z Nation S03E01 720p HDTV HEVC 2CH x265","uid":15845609,"size":527293631,"categoryP":"video","categoryS":"hd___tv_shows","magnet":"?xt=urn:btih:a935a4336445af3c2b870e0dd23720a687cc99d1&amp;dn=Z+Nation+S03E01+720p+HDTV+HEVC+2CH+x265&amp;tr=udp%3A%2F%2Ftracker.leechers-paradise.org%3A6969&amp;tr=udp%3A%2F%2Fzer0day.ch%3A1337&amp;tr=udp%3A%2F%2Fopen.demonii.com%3A1337&amp;tr=udp%3A%2F%2Ftracker.coppersurfer.tk%3A6969&amp;tr=udp%3A%2F%2Fexodus.desync.com%3A6969","seeders":1,"leechers":3,"uploader":"nayhtut","files":1,"time":1474090440,"description":"[Screenshots Gallery Link]\r\n\r\n[http://postimg.org/gallery/m1s0p6f0]\r\n\r\n\r\nSource:Z Nation S03E01 720p HDTV x264-KILLERS (2.15 GB)\r\n\r\n\r\nComplete name : Z.Nation.S03E01.720p.HDTV.HEVC.2CH.x265.mkv\r\nFormat                                   : Matroska\r\nFormat version                           : Version 4 / Version 2\r\nFile size                                : 503 MiB\r\nDuration                                 : 1h 25mn\r\nOverall bit rate                         : 827 Kbps\r\nWriting application                      : Lavf57.25.100\r\nWriting library                          : Lavf57.25.100\r\n\r\nVideo\r\n\r\nID                                       : 1\r\nFormat                                   : V_MPEGH/ISO/HEVC\r\nCodec ID                                 : V_MPEGH/ISO/HEVC\r\nDuration                                 : 1h 25mn\r\nBit rate                                 : 618 Kbps\r\nWidth                                    : 1 280 pixels\r\nHeight                                   : 536 pixels\r\nDisplay aspect ratio                     : 2.40:1\r\nFrame rate                               : 25.000 fps\r\nBits/(Pixel*Frame)                       : 0.036\r\nStream size                              : 376 MiB (75%)\r\nWriting library                          : Lavc57.48.101 libx265\r\nDefault                                  : Yes\r\nForced                                   : No\r\nDURATION                                 : 01:25:01.811000000\r\n\r\nAudio\r\n\r\nID                                       : 2\r\nFormat                                   : AC-3\r\nFormat/Info                              : Audio Coding 3\r\nMode extension                           : CM (complete main)\r\nFormat settings, Endianness              : Big\r\nCodec ID                                 : A_AC3\r\nDuration                                 : 1h 25mn\r\nBit rate mode                            : Constant\r\nBit rate                                 : 192 Kbps\r\nChannel(s)                               : 2 channels\r\nChannel positions                        : Front: L R\r\nSampling rate                            : 48.0 KHz\r\nBit depth                                : 16 bits\r\nCompression mode                         : Lossy\r\nStream size                              : 117 MiB (23%)\r\nWriting library                          : Lavc57.24.102 ac3\r\nDefault                                  : Yes\r\nForced                                   : No\r\nDURATION                                 : 01:25:01.855000000","torrent":{"xt":"urn:btih:a935a4336445af3c2b870e0dd23720a687cc99d1","amp;dn":"Z+Nation+S03E01+720p+HDTV+HEVC+2CH+x265","amp;tr":["udp%3A%2F%2Ftracker.leechers-paradise.org%3A6969","udp%3A%2F%2Fzer0day.ch%3A1337","udp%3A%2F%2Fopen.demonii.com%3A1337","udp%3A%2F%2Ftracker.coppersurfer.tk%3A6969","udp%3A%2F%2Fexodus.desync.com%3A6969"],"infoHash":"a935a4336445af3c2b870e0dd23720a687cc99d1","infoHashBuffer":{"type":"Buffer","data":[169,53,164,51,100,69,175,60,43,135,14,13,210,55,32,166,135,204,153,209]},"announce":[],"urlList":[]}}